<svg width="890" height="425" xmlns="http://www.w3.org/2000/svg" xmlns:xlink="http://www.w3.org/1999/xlink" overflow="hidden"><defs><clipPath id="clip0"><rect x="381" y="70" width="890" height="425"/></clipPath></defs><g clip-path="url(#clip0)" transform="translate(-381 -70)"><rect x="424.5" y="91.5001" width="237" height="194" stroke="#000000" stroke-width="1.33333" stroke-miterlimit="8" fill="#EDF1F3"/><text fill="#00A9E0" font-family="Arial,Arial_MSFontService,sans-serif" font-weight="700" font-size="19" transform="translate(433.437 113)">Course<tspan x="69.3333" y="0">P</tspan><tspan x="81.8334" y="0">r</tspan><tspan x="89.1667" y="0">e</tspan><tspan x="99.5" y="0">s</tspan><tspan x="109.833" y="0">c</tspan><tspan x="120.167" y="0">r</tspan><tspan x="127.5" y="0">i</tspan><tspan x="132.667" y="0">ption</tspan><tspan fill="#000000" font-weight="400" font-size="13" x="0" y="17">H</tspan><tspan fill="#000000" font-weight="400" font-size="13" x="9.66669" y="17">ow to treat, covering a </tspan><tspan fill="#000000" font-weight="400" font-size="13" x="0" y="33">complete radiotherapy treatment</tspan><tspan fill="#000000" font-weight="400" font-size="13" x="0" y="49">-</tspan><tspan fill="#000000" font-weight="400" font-size="13" x="18" y="49">B</tspan><tspan fill="#000000" font-weight="400" font-size="13" x="26.8333" y="49">o</tspan><tspan fill="#000000" font-weight="400" font-size="13" x="34.1667" y="49">d</tspan><tspan fill="#000000" font-weight="400" font-size="13" x="41.5" y="49">y </tspan><tspan fill="#000000" font-weight="400" font-size="13" x="51.8333" y="49">S</tspan><tspan fill="#000000" font-weight="400" font-size="13" x="60.6667" y="49">ite</tspan><tspan fill="#000000" font-weight="400" font-size="13" x="0" y="65">-</tspan><tspan fill="#000000" font-weight="400" font-size="13" x="18" y="65">D</tspan><tspan fill="#000000" font-weight="400" font-size="13" x="27.6667" y="65">i</tspan><tspan fill="#000000" font-weight="400" font-size="13" x="30.6667" y="65">a</tspan><tspan fill="#000000" font-weight="400" font-size="13" x="38" y="65">g</tspan><tspan fill="#000000" font-weight="400" font-size="13" x="45.3333" y="65">n</tspan><tspan fill="#000000" font-weight="400" font-size="13" x="52.6667" y="65">o</tspan><tspan fill="#000000" font-weight="400" font-size="13" x="60" y="65">sis</tspan><tspan fill="#000000" font-weight="400" font-size="13" x="0" y="81">-</tspan><tspan fill="#000000" font-weight="400" font-size="13" x="18" y="81">Therapeutic Intent</tspan><tspan fill="#000000" font-weight="400" font-size="13" x="0" y="97">-</tspan><tspan fill="#000000" font-weight="400" font-size="13" x="18" y="97">Modalities</tspan><tspan fill="#000000" font-weight="400" font-size="13" x="0" y="113">-</tspan><tspan fill="#000000" font-weight="400" font-size="13" x="18" y="113">Techniques (optional)</tspan><tspan fill="#000000" font-weight="400" font-size="13" x="0" y="129">-</tspan><tspan fill="#000000" font-size="13" x="18" y="129">Prescribed</tspan><tspan fill="#000000" font-weight="400" font-size="13" x="90.1667" y="129">Number of Sessions</tspan><tspan fill="#000000" font-weight="400" font-size="13" x="0" y="145">-</tspan><tspan fill="#000000" font-size="13" x="18" y="145">Pre</tspan><tspan fill="#000000" font-size="13" x="39.3333" y="145">s</tspan><tspan fill="#000000" font-size="13" x="46.6667" y="145">c</tspan><tspan fill="#000000" font-size="13" x="54" y="145">r</tspan><tspan fill="#000000" font-size="13" x="59.1667" y="145">i</tspan><tspan fill="#000000" font-size="13" x="62.8333" y="145">b</tspan><tspan fill="#000000" font-size="13" x="71" y="145">e</tspan><tspan fill="#000000" font-size="13" x="78.3333" y="145">d</tspan><tspan fill="#000000" font-weight="400" font-size="13" x="90.1667" y="145">Do</tspan><tspan fill="#000000" font-weight="400" font-size="13" x="107.167" y="145">s</tspan><tspan fill="#000000" font-weight="400" font-size="13" x="113.833" y="145">e </tspan><tspan fill="#000000" font-weight="400" font-size="13" x="124.833" y="145">p</tspan><tspan fill="#000000" font-weight="400" font-size="13" x="132.167" y="145">e</tspan><tspan fill="#000000" font-weight="400" font-size="13" x="139.5" y="145">r</tspan><tspan fill="#000000" font-weight="400" font-size="13" x="147.667" y="145">Volume</tspan><tspan fill="#000000" font-weight="400" font-size="13" x="0" y="161">-</tspan><tspan fill="#000000" font-size="13" x="18" y="161">P</tspan><tspan fill="#000000" font-size="13" x="26.8333" y="161">r</tspan><tspan fill="#000000" font-size="13" x="32" y="161">e</tspan><tspan fill="#000000" font-size="13" x="39.3333" y="161">s</tspan><tspan fill="#000000" font-size="13" x="46.6667" y="161">c</tspan><tspan fill="#000000" font-size="13" x="54" y="161">r</tspan><tspan fill="#000000" font-size="13" x="59.1667" y="161">i</tspan><tspan fill="#000000" font-size="13" x="62.8333" y="161">bed </tspan><tspan fill="#000000" font-weight="400" font-size="13" x="90.1667" y="161">F</tspan><tspan fill="#000000" font-weight="400" font-size="13" x="98.3334" y="161">ractions</tspan><tspan fill="#000000" font-weight="400" font-size="13" x="148.5" y="161">per Volume</tspan></text><rect x="1005.5" y="85.5001" width="231" height="161" stroke="#000000" stroke-width="1.33333" stroke-miterlimit="8" fill="#EDF1F3"/><text fill="#00A9E0" font-family="Arial,Arial_MSFontService,sans-serif" font-weight="700" font-size="19" transform="translate(1014.27 108)">Course<tspan x="69.3334" y="0">Summary</tspan><tspan fill="#000000" font-weight="400" font-size="13" x="0" y="17">-</tspan><tspan fill="#000000" font-weight="400" font-size="13" x="18" y="17">B</tspan><tspan fill="#000000" font-weight="400" font-size="13" x="26.8334" y="17">o</tspan><tspan fill="#000000" font-weight="400" font-size="13" x="34.1666" y="17">d</tspan><tspan fill="#000000" font-weight="400" font-size="13" x="41.5" y="17">y </tspan><tspan fill="#000000" font-weight="400" font-size="13" x="51.8334" y="17">S</tspan><tspan fill="#000000" font-weight="400" font-size="13" x="60.6666" y="17">ite</tspan><tspan fill="#000000" font-weight="400" font-size="13" x="0" y="33">-</tspan><tspan fill="#000000" font-weight="400" font-size="13" x="18" y="33">D</tspan><tspan fill="#000000" font-weight="400" font-size="13" x="27.6666" y="33">i</tspan><tspan fill="#000000" font-weight="400" font-size="13" x="30.6666" y="33">a</tspan><tspan fill="#000000" font-weight="400" font-size="13" x="38" y="33">g</tspan><tspan fill="#000000" font-weight="400" font-size="13" x="45.3334" y="33">n</tspan><tspan fill="#000000" font-weight="400" font-size="13" x="52.6666" y="33">o</tspan><tspan fill="#000000" font-weight="400" font-size="13" x="60" y="33">sis</tspan><tspan fill="#000000" font-weight="400" font-size="13" x="0" y="49">-</tspan><tspan fill="#000000" font-weight="400" font-size="13" x="18" y="49">Therapeutic Intent</tspan><tspan fill="#000000" font-weight="400" font-size="13" x="0" y="65">-</tspan><tspan fill="#000000" font-weight="400" font-size="13" x="18" y="65">Modalities</tspan><tspan fill="#000000" font-weight="400" font-size="13" x="0" y="81">-</tspan><tspan fill="#000000" font-weight="400" font-size="13" x="18" y="81">Techniques</tspan><tspan fill="#000000" font-weight="400" font-size="13" x="0" y="97">-</tspan><tspan fill="#000000" font-size="13" x="18" y="97">Delivered</tspan><tspan fill="#000000" font-weight="400" font-size="13" x="81.3334" y="97">Number of Sessions</tspan><tspan fill="#000000" font-weight="400" font-size="13" x="0" y="113">-</tspan><tspan fill="#000000" font-size="13" x="18" y="113">Delivered</tspan><tspan fill="#000000" font-weight="400" font-size="13" x="81.3334" y="113">Dose per Volume</tspan><tspan fill="#000000" font-weight="400" font-size="13" x="0" y="129">-</tspan><tspan fill="#000000" font-size="13" x="18" y="129">Delivered</tspan><tspan fill="#000000" font-weight="400" font-size="13" x="81.3334" y="129">Fractions per Volume</tspan></text><rect x="926.5" y="317.5" width="277" height="116" stroke="#000000" stroke-width="1.33333" stroke-miterlimit="8" fill="#EDF1F3"/><text fill="#00A9E0" font-family="Arial,Arial_MSFontService,sans-serif" font-weight="400" font-size="16" transform="translate(935.699 338)">Teleradiotherapy<tspan x="124" y="0">or Brachytherapy</tspan><tspan font-weight="700" font-size="19" x="0" y="21">Treatment Phase</tspan><tspan fill="#000000" font-size="13" x="0" y="39">-</tspan><tspan fill="#000000" font-size="13" x="18" y="39">Modality</tspan><tspan fill="#000000" font-size="13" x="0" y="55">-</tspan><tspan fill="#000000" font-size="13" x="18" y="55">Techniques</tspan><tspan fill="#000000" font-size="13" x="0" y="71">-</tspan><tspan fill="#000000" font-weight="700" font-size="13" x="18" y="71">Delivered</tspan><tspan fill="#000000" font-size="13" x="81.3334" y="71">Number of Fractions</tspan><tspan fill="#000000" font-size="13" x="0" y="87">-</tspan><tspan fill="#000000" font-weight="700" font-size="13" x="18" y="87">Delivered</tspan><tspan fill="#000000" font-size="13" x="81.3334" y="87">Dose per Volume</tspan></text><path d="M1.02364e-07-0.333333 335.207-0.33323 335.207 0.333436-1.02364e-07 0.333333ZM333.873-3.9999 341.873 0.000104987 333.873 4.0001Z" fill="#00A9E0" transform="matrix(-1 -8.74228e-08 -8.74228e-08 1 1005.37 124.5)"/><rect x="837.5" y="72.5001" width="431" height="374" stroke="#FF0000" stroke-width="3" stroke-miterlimit="8" fill="none"/><rect x="394.5" y="326.5" width="269" height="148" stroke="#000000" stroke-width="1.33333" stroke-miterlimit="8" fill="#EDF1F3"/><text fill="#00A9E0" font-family="Arial,Arial_MSFontService,sans-serif" font-weight="400" font-size="16" transform="translate(403.188 347)">Teleradiotherapy<tspan x="124" y="0">or Brachytherapy </tspan><tspan font-weight="700" font-size="19" x="0" y="21">Phase</tspan><tspan font-weight="700" font-size="19" x="60" y="21">Prescription</tspan><tspan fill="#000000" font-size="13" x="0" y="39">A</tspan><tspan fill="#000000" font-size="13" x="12.5" y="39">s</tspan><tspan fill="#000000" font-size="13" x="19.1667" y="39">e</tspan><tspan fill="#000000" font-size="13" x="26.5" y="39">r</tspan><tspan fill="#000000" font-size="13" x="31" y="39">ies</tspan><tspan fill="#000000" font-size="13" x="51.6667" y="39">of </tspan><tspan fill="#000000" font-size="13" x="66.3333" y="39">e</tspan><tspan fill="#000000" font-size="13" x="73.6667" y="39">q</tspan><tspan fill="#000000" font-size="13" x="81" y="39">u</tspan><tspan fill="#000000" font-size="13" x="88.3333" y="39">i</tspan><tspan fill="#000000" font-size="13" x="91.3333" y="39">v</tspan><tspan fill="#000000" font-size="13" x="98" y="39">a</tspan><tspan fill="#000000" font-size="13" x="105.333" y="39">l</tspan><tspan fill="#000000" font-size="13" x="108.333" y="39">e</tspan><tspan fill="#000000" font-size="13" x="115.667" y="39">n</tspan><tspan fill="#000000" font-size="13" x="123" y="39">t </tspan><tspan fill="#000000" font-size="13" x="130.333" y="39">f</tspan><tspan fill="#000000" font-size="13" x="134" y="39">r</tspan><tspan fill="#000000" font-size="13" x="138.5" y="39">a</tspan><tspan fill="#000000" font-size="13" x="145.833" y="39">c</tspan><tspan fill="#000000" font-size="13" x="152.5" y="39">t</tspan><tspan fill="#000000" font-size="13" x="156.167" y="39">i</tspan><tspan fill="#000000" font-size="13" x="159.167" y="39">o</tspan><tspan fill="#000000" font-size="13" x="166.5" y="39">n</tspan><tspan fill="#000000" font-size="13" x="173.833" y="39">s </tspan><tspan fill="#000000" font-size="13" x="0" y="55">to </tspan><tspan fill="#000000" font-size="13" x="14.6667" y="55">a (sub</tspan><tspan fill="#000000" font-size="13" x="51.5" y="55">-</tspan><tspan fill="#000000" font-size="13" x="56" y="55">)set of </tspan><tspan fill="#000000" font-size="13" x="96.5" y="55">volumes</tspan><tspan fill="#000000" font-size="13" x="0" y="71">-</tspan><tspan fill="#000000" font-size="13" x="18" y="71">Modality</tspan><tspan fill="#000000" font-size="13" x="0" y="87">-</tspan><tspan fill="#000000" font-size="13" x="18" y="87">Techniques</tspan><tspan fill="#000000" font-size="13" x="0" y="103">-</tspan><tspan fill="#000000" font-weight="700" font-size="13" x="18" y="103">P</tspan><tspan fill="#000000" font-weight="700" font-size="13" x="26.8333" y="103">r</tspan><tspan fill="#000000" font-weight="700" font-size="13" x="32" y="103">e</tspan><tspan fill="#000000" font-weight="700" font-size="13" x="39.3333" y="103">s</tspan><tspan fill="#000000" font-weight="700" font-size="13" x="46.6667" y="103">c</tspan><tspan fill="#000000" font-weight="700" font-size="13" x="54" y="103">r</tspan><tspan fill="#000000" font-weight="700" font-size="13" x="59.1667" y="103">i</tspan><tspan fill="#000000" font-weight="700" font-size="13" x="62.8333" y="103">bed </tspan><tspan fill="#000000" font-size="13" x="90.1667" y="103">N</tspan><tspan fill="#000000" font-size="13" x="99.8333" y="103">u</tspan><tspan fill="#000000" font-size="13" x="107.167" y="103">m</tspan><tspan fill="#000000" font-size="13" x="118.333" y="103">b</tspan><tspan fill="#000000" font-size="13" x="125.667" y="103">e</tspan><tspan fill="#000000" font-size="13" x="133" y="103">r </tspan><tspan fill="#000000" font-size="13" x="141.167" y="103">o</tspan><tspan fill="#000000" font-size="13" x="148.5" y="103">f Fractions</tspan><tspan fill="#000000" font-size="13" x="0" y="119">-</tspan><tspan fill="#000000" font-weight="700" font-size="13" x="18" y="119">Pre</tspan><tspan fill="#000000" font-weight="700" font-size="13" x="39.3333" y="119">s</tspan><tspan fill="#000000" font-weight="700" font-size="13" x="46.6667" y="119">c</tspan><tspan fill="#000000" font-weight="700" font-size="13" x="54" y="119">r</tspan><tspan fill="#000000" font-weight="700" font-size="13" x="59.1667" y="119">i</tspan><tspan fill="#000000" font-weight="700" font-size="13" x="62.8333" y="119">b</tspan><tspan fill="#000000" font-weight="700" font-size="13" x="71" y="119">e</tspan><tspan fill="#000000" font-weight="700" font-size="13" x="78.3333" y="119">d</tspan><tspan fill="#000000" font-size="13" x="90.1667" y="119">Do</tspan><tspan fill="#000000" font-size="13" x="107.167" y="119">s</tspan><tspan fill="#000000" font-size="13" x="113.833" y="119">e </tspan><tspan fill="#000000" font-size="13" x="124.833" y="119">p</tspan><tspan fill="#000000" font-size="13" x="132.167" y="119">e</tspan><tspan fill="#000000" font-size="13" x="139.5" y="119">r</tspan><tspan fill="#000000" font-size="13" x="147.667" y="119">Volume</tspan><tspan fill="#000000" font-size="13" x="115.772" y="-28">fulfilled in 1..*</tspan></text><path d="M1.32908e-07-0.333333 256.639-0.333231 256.639 0.333436-1.32908e-07 0.333333ZM255.306-3.9999 263.306 0.000104987 255.306 4.0001Z" fill="#00A9E0" transform="matrix(-1 -8.74228e-08 -8.74228e-08 1 926.806 421.5)"/><path d="M607.833 285.5 607.833 320.104 607.167 320.104 607.167 285.5ZM611.5 318.771 607.5 326.771 603.5 318.771Z" fill="#00A9E0"/><rect x="383.5" y="77.5001" width="383" height="416" stroke="#33CC33" stroke-width="3" stroke-miterlimit="8" fill="none"/><rect x="730.5" y="188.5" width="163" height="136" stroke="#000000" stroke-width="1.33333" stroke-miterlimit="8" fill="#EDF1F3"/><text fill="#00A9E0" font-family="Arial,Arial_MSFontService,sans-serif" font-weight="700" font-size="19" transform="translate(739.943 211)">Radiotherapy <tspan x="0" y="23">Volume</tspan><tspan fill="#000000" font-weight="400" font-size="13" x="0" y="40">(</tspan><tspan fill="#000000" font-weight="400" font-size="13" x="4.5" y="40">Targets or OARs</tspan><tspan fill="#000000" font-weight="400" font-size="13" x="104.167" y="40">)</tspan><tspan fill="#000000" font-weight="400" font-size="13" x="0" y="56">-</tspan><tspan fill="#000000" font-weight="400" font-size="13" x="18" y="56">Name</tspan><tspan fill="#000000" font-weight="400" font-size="13" x="0" y="72">-</tspan><tspan fill="#000000" font-weight="400" font-size="13" x="18" y="72">Technical Identifier</tspan><tspan fill="#000000" font-weight="400" font-size="13" x="0" y="88">-</tspan><tspan fill="#000000" font-weight="400" font-size="13" x="18" y="88">Type</tspan><tspan fill="#000000" font-weight="400" font-size="13" x="0" y="104">-</tspan><tspan fill="#000000" font-weight="400" font-size="13" x="18" y="104">location / anatomy</tspan></text><path d="M0.209186-0.259523 107.054 85.862 106.636 86.3811-0.209186 0.259523ZM108.317 82.1705 112.035 90.3053 103.297 88.3991Z" fill="#00A9E0" transform="matrix(-1 -8.74228e-08 -8.74228e-08 1 1005.54 166.5)"/><text font-family="Arial,Arial_MSFontService,sans-serif" font-weight="400" font-size="13" transform="translate(737.931 418)">s<tspan x="6.66669" y="0">u</tspan><tspan x="14" y="0">m</tspan><tspan x="25.1667" y="0">m</tspan><tspan x="36.3334" y="0">a</tspan><tspan x="43.6667" y="0">r</tspan>iz<tspan x="57.8334" y="0">e</tspan><tspan x="65.1667" y="0">s </tspan><tspan x="-3.5" y="16">ful</tspan>fi<tspan x="17.1667" y="16">lment</tspan><tspan x="53.3334" y="16">of 1</tspan><tspan x="111.426" y="-321">s</tspan><tspan x="118.093" y="-321">u</tspan><tspan x="125.426" y="-321">m</tspan><tspan x="136.593" y="-321">m</tspan><tspan x="147.76" y="-321">a</tspan><tspan x="155.093" y="-321">r</tspan>iz<tspan x="169.26" y="-321">e</tspan><tspan x="176.593" y="-321">s </tspan><tspan x="107.926" y="-305">ful</tspan>fi<tspan x="128.593" y="-305">lment</tspan><tspan x="164.76" y="-305">of 1</tspan></text><path d="M926.648 376.047 894.978 263.009 895.62 262.83 927.29 375.868ZM891.807 265.283 893.5 256.5 899.51 263.124Z" fill="#00A9E0"/><text font-family="Arial,Arial_MSFontService,sans-serif" font-weight="400" font-size="13" transform="translate(905.045 283)">summarizes dose <tspan x="6.07996" y="16">delivered </tspan>to 1..*<tspan x="1.83722" y="-119">summarizes </tspan><tspan x="23.4172" y="-103">dose </tspan><tspan x="3.50385" y="-87">delivered to </tspan><tspan x="27.8372" y="-71">1..*</tspan><tspan x="-227.097" y="-104">prescribes </tspan><tspan x="-218.097" y="-88">dose to</tspan><tspan x="-206.344" y="-72">1..*</tspan></text><path d="M0.301868-0.141375 65.0243 138.056 64.4206 138.339-0.301868 0.141375ZM67.7794 135.294 67.55 144.235 60.5346 138.687Z" fill="#00A9E0" transform="matrix(1 0 0 -1 663.5 400.735)"/><path d="M661.734 188.263 726.33 251.876 725.863 252.351 661.266 188.738ZM727.953 248.328 730.847 256.792 722.34 254.028Z" fill="#00A9E0"/><text font-family="Arial,Arial_MSFontService,sans-serif" font-weight="400" font-size="13" transform="translate(666.557 332)">prescribes <tspan x="9" y="16">dose to</tspan><tspan x="20.7533" y="32">1..*</tspan></text></g></svg>